<svg width="208" height="61" viewBox="0 0 208 61" fill="none" xmlns="http://www.w3.org/2000/svg">
<g filter="url(#filter0_d_79_499)">
<path d="M103.15 3.26782H115.884V37.2355H103.15V3.26782Z" fill="white"/>
<path d="M35.9902 24.6417H19.0363C19.0363 28.0167 18.9551 31.291 19.1143 34.5523C19.1435 35.111 20.1505 35.9913 20.797 36.0855C24.5263 36.628 27.6188 35.0688 30.3801 32.743C31.2799 31.9796 31.9491 30.9402 32.8587 30.1931L32.9334 30.1346C33.8462 29.4849 35.1391 30.3977 34.7201 31.4339C34.6854 31.5221 34.6372 31.6043 34.5771 31.6775C32.3654 34.4242 29.3694 36.432 25.9881 37.4336C18.9031 39.558 11.4478 36.3389 8.44619 29.839C4.12894 20.4644 11.0093 9.95281 21.3265 9.64422C30.0682 9.38435 35.8603 16.1408 35.9902 24.6417ZM25.0753 22.9785C25.0753 19.7465 25.0753 16.6703 25.0753 13.5974C25.0753 11.8985 23.8896 11.5802 22.5999 11.4373C20.5436 11.2132 19.15 11.7849 19.0915 13.1329C18.9453 16.3812 19.0428 19.675 19.0428 22.9785H25.0753Z" fill="white"/>
<path d="M170.423 24.6871H153.505C153.505 28.0296 153.44 31.2552 153.537 34.4743C153.579 35.8808 154.687 36.3031 155.951 36.2901C159.524 36.2446 162.552 34.9063 165.125 32.4961C166.07 31.6093 166.876 30.5763 167.84 29.7187C167.896 29.6702 167.958 29.6297 168.026 29.5986C168.172 29.5365 168.331 29.5085 168.49 29.5168C168.649 29.525 168.805 29.5693 168.944 29.6462C169.084 29.7232 169.204 29.8308 169.296 29.9609C169.387 30.0911 169.449 30.2404 169.474 30.3976C169.507 30.5857 169.529 30.7755 169.539 30.9661C169.491 31.2335 169.356 31.4777 169.156 31.6612C165.196 36.2316 160.249 38.6646 154.158 37.9467C148.866 37.323 144.873 34.4905 142.788 29.5206C138.623 19.5872 146.153 9.98198 155.684 9.65714C164.79 9.33231 170.426 16.4786 170.423 24.6871ZM159.501 22.9428C159.531 22.4815 159.57 22.1632 159.57 21.8416C159.57 19.139 159.592 16.4364 159.54 13.7208C159.508 12.0641 158.745 11.4892 156.714 11.4047C154.609 11.317 153.55 11.8887 153.492 13.4772C153.381 16.5923 153.459 19.7172 153.459 22.9298L159.501 22.9428Z" fill="white"/>
<path d="M84.9385 37.9826C77.1649 38.3301 70.5834 31.8335 70.4924 23.9433C70.4112 16.3455 76.97 9.29994 85.585 9.65076C93.037 9.97559 99.3716 16.1474 99.3619 23.7744C99.3554 32.2363 92.2574 38.3789 84.9385 37.9826ZM84.2888 36.2642C89.3727 36.1927 93.4139 34.3639 95.9607 30.0697C98.5075 25.7754 98.4263 21.2992 95.6358 17.1284C93.0013 13.1719 89.1063 11.4146 84.2661 11.4471L84.2888 36.2642Z" fill="white"/>
<path d="M54.1557 38.0929L35.9316 10.3653H43.2927C45.349 10.3653 47.4118 10.4822 49.4649 10.3263C50.9949 10.2094 51.7778 10.8395 52.512 12.0771C54.9646 16.2415 57.5374 20.3214 60.2272 24.6871C62.3549 20.591 67.0815 11.4924 67.3381 10.7973C67.7474 9.68312 68.6635 9.36804 69.6121 9.8228C70.7393 10.3685 70.1156 11.2715 69.6706 12.0122C67.023 16.4039 64.3398 20.7599 61.7215 25.1581C59.4475 29.0041 57.2321 32.8988 54.9873 36.7676C54.7632 37.1736 54.4968 37.5602 54.1557 38.0929Z" fill="white"/>
<path d="M186.207 23.9076C186.207 27.2632 186.207 30.6187 186.207 33.9774C186.207 35.9069 186.932 36.5761 188.764 36.2707C192.168 35.6828 195.085 34.2275 197.187 31.3658C197.641 30.6966 198.175 30.0847 198.776 29.5435C199.071 29.2966 199.792 29.2186 200.075 29.3941C200.358 29.5695 200.452 30.2678 200.358 30.6674C200.193 31.1814 199.917 31.6527 199.549 32.0479C196.437 35.8127 192.578 37.9761 187.546 38.0118C181.676 38.0508 177.118 35.7705 174.25 30.6544C169.023 21.3317 175.91 9.80021 186.594 9.68327C190.589 9.64105 194.153 10.5571 197.255 13.081C197.856 13.5407 198.365 14.1093 198.756 14.7571C198.795 14.8287 198.825 14.9052 198.844 14.9845C198.884 15.1671 198.875 15.357 198.817 15.5349C198.76 15.7128 198.657 15.8724 198.518 15.9974C198.379 16.1225 198.209 16.2085 198.026 16.2468C197.844 16.2852 197.654 16.2744 197.476 16.2156C197.402 16.1873 197.331 16.1503 197.265 16.1052C196.235 15.3353 195.449 14.1562 194.342 13.5877C192.64 12.6991 190.843 12.0081 188.985 11.5283C187.487 11.145 186.243 12.1358 186.233 13.6819C186.233 17.0894 186.233 20.5034 186.233 23.9109L186.207 23.9076Z" fill="white"/>
<path d="M54.4092 48.8481H51.7714V51.2973H54.695V52.0314H50.8943V45.2424H54.5748V45.9798H51.7844V48.1237H54.4222L54.4092 48.8481Z" fill="white"/>
<path d="M57.3002 52.0314L55.0847 45.2424H56.03L57.089 48.5882C57.3814 49.5042 57.6315 50.3293 57.8135 51.1251H57.8232C58.0149 50.339 58.2975 49.501 58.5996 48.5979L59.7723 45.2424H60.7111L58.2812 52.0314H57.3002Z" fill="white"/>
<path d="M67.0977 48.5687C67.0977 50.9042 65.6781 52.1419 63.9467 52.1419C62.1535 52.1419 60.8931 50.7516 60.8931 48.6986C60.8931 46.5418 62.2347 45.1255 64.0474 45.1255C65.86 45.1255 67.0977 46.5515 67.0977 48.5687ZM61.8319 48.6791C61.8319 50.1279 62.618 51.4272 63.9954 51.4272C65.3727 51.4272 66.1719 50.1474 66.1719 48.6077C66.1719 47.2596 65.467 45.8466 64.0051 45.8466C62.5433 45.8466 61.8319 47.1882 61.8319 48.6791Z" fill="white"/>
<path d="M68.1047 45.2424H68.9818V51.2973H71.8827V52.0314H68.1047V45.2424Z" fill="white"/>
<path d="M73.6239 52.0314L71.4084 45.2424H72.3538L73.4128 48.5882C73.7051 49.5042 73.9553 50.3293 74.1372 51.1251H74.1567C74.3483 50.339 74.631 49.501 74.9331 48.5979L76.0798 45.2424H77.0186L74.592 52.0314H73.6239Z" fill="white"/>
<path d="M78.4967 45.2424V52.0314H77.6196V45.2424H78.4967Z" fill="white"/>
<path d="M79.9131 52.0314V45.2424H80.8876L83.0609 48.6792C83.5148 49.3875 83.9228 50.1242 84.2823 50.8848H84.3018C84.2206 49.9785 84.2011 49.1502 84.2011 48.0945V45.2522H85.0262V52.0412H84.1394L81.9856 48.5979C81.5159 47.8669 81.0917 47.1075 80.7155 46.3241H80.6862C80.735 47.1817 80.7544 47.997 80.7544 49.1242V52.0249L79.9131 52.0314Z" fill="white"/>
<path d="M91.5589 51.7294C90.8899 51.9712 90.1847 52.0975 89.4734 52.103C89.0099 52.1475 88.5422 52.0901 88.1033 51.9347C87.6644 51.7793 87.2648 51.5297 86.9326 51.2034C86.6004 50.8771 86.3437 50.4821 86.1805 50.046C86.0172 49.6099 85.9514 49.1434 85.9877 48.6792C85.9877 46.6523 87.3911 45.1743 89.665 45.1743C90.2457 45.1634 90.8222 45.2741 91.3575 45.4991L91.1463 46.2138C90.6737 46.007 90.1612 45.9071 89.6455 45.9214C87.9953 45.9214 86.9168 46.9479 86.9168 48.65C86.9168 50.3521 87.9531 51.3916 89.5351 51.3916C89.9333 51.4132 90.3317 51.3512 90.7045 51.2097V49.186H89.3337V48.4811H91.5686L91.5589 51.7294Z" fill="white"/>
<path d="M95.6456 45.9895H93.5828V45.2424H98.6082V45.9895H96.5324V52.0314H95.6456V45.9895Z" fill="white"/>
<path d="M102.747 48.8481H100.109V51.2973H103.049V52.0314H99.2319V45.2424H102.899V45.9798H100.109V48.1237H102.747V48.8481Z" fill="white"/>
<path d="M108.799 51.8107C108.231 52.0453 107.62 52.156 107.006 52.1356C105.092 52.1356 103.653 50.9272 103.653 48.7021C103.653 46.5777 105.092 45.129 107.197 45.129C107.755 45.1038 108.31 45.2071 108.821 45.431L108.61 46.1457C108.18 45.9536 107.714 45.8582 107.243 45.8663C105.651 45.8663 104.592 46.883 104.592 48.6664C104.592 50.3263 105.55 51.395 107.191 51.395C107.682 51.4025 108.169 51.3062 108.62 51.1124L108.799 51.8107Z" fill="white"/>
<path d="M110.641 45.2427V48.0752H113.925V45.2329H114.812V52.0219H113.925V48.8385H110.641V52.0219H109.767V45.2329L110.641 45.2427Z" fill="white"/>
<path d="M116.199 52.0314V45.2424H117.157L119.334 48.6792C119.788 49.3868 120.195 50.1236 120.552 50.8848H120.571C120.49 49.9785 120.471 49.1502 120.471 48.0945V45.2522H121.296V52.0412H120.409L118.245 48.5882C117.777 47.8564 117.353 47.0971 116.975 46.3144H116.946C116.995 47.1719 117.017 47.9873 117.017 49.1144V52.0152L116.199 52.0314Z" fill="white"/>
<path d="M128.498 48.5687C128.498 50.9042 127.078 52.1419 125.343 52.1419C123.55 52.1419 122.293 50.7516 122.293 48.6986C122.293 46.5418 123.631 45.1255 125.444 45.1255C127.257 45.1255 128.498 46.5515 128.498 48.5687ZM123.229 48.6791C123.229 50.1279 124.015 51.4272 125.395 51.4272C126.776 51.4272 127.572 50.1474 127.572 48.6077C127.572 47.2596 126.867 45.8466 125.405 45.8466C123.943 45.8466 123.229 47.1882 123.229 48.6791Z" fill="white"/>
<path d="M129.501 45.2424H130.379V51.2973H133.279V52.0314H129.501V45.2424Z" fill="white"/>
<path d="M139.533 48.5687C139.533 50.9042 138.113 52.1419 136.382 52.1419C134.589 52.1419 133.328 50.7516 133.328 48.6986C133.328 46.5418 134.67 45.1255 136.482 45.1255C138.295 45.1255 139.533 46.5515 139.533 48.5687ZM134.267 48.6791C134.267 50.1279 135.053 51.4272 136.43 51.4272C137.808 51.4272 138.607 50.1474 138.607 48.6077C138.607 47.2596 137.902 45.8466 136.443 45.8466C134.985 45.8466 134.267 47.1882 134.267 48.6791Z" fill="white"/>
<path d="M145.708 51.7294C145.039 51.9712 144.334 52.0975 143.623 52.103C143.159 52.1481 142.691 52.0911 142.252 51.9359C141.813 51.7807 141.413 51.5311 141.081 51.2047C140.748 50.8783 140.492 50.483 140.329 50.0467C140.165 49.6103 140.1 49.1436 140.137 48.6792C140.137 46.6523 141.537 45.1743 143.814 45.1743C144.395 45.1634 144.971 45.2741 145.507 45.4991L145.296 46.2138C144.822 46.007 144.308 45.9072 143.792 45.9214C142.141 45.9214 141.063 46.9479 141.063 48.65C141.063 50.3521 142.102 51.3916 143.681 51.3916C144.079 51.4132 144.478 51.3512 144.851 51.2097V49.186H143.47V48.4811H145.708V51.7294Z" fill="white"/>
<path d="M147.807 45.2424V52.0314H146.93V45.2424H147.807Z" fill="white"/>
<path d="M152.706 48.8481H150.081V51.2973H153.004V52.0314H149.191V45.2424H152.858V45.9798H150.081V48.1237H152.719L152.706 48.8481Z" fill="white"/>
<path d="M153.895 50.966C154.369 51.2505 154.911 51.403 155.464 51.4078C156.36 51.4078 156.883 50.9335 156.883 50.2481C156.883 49.6147 156.523 49.2509 155.607 48.9001C154.499 48.507 153.813 47.9256 153.813 46.9771C153.813 45.9181 154.687 45.132 156.009 45.132C156.529 45.1114 157.045 45.2232 157.51 45.4569L157.266 46.1715C156.867 45.9559 156.421 45.8442 155.967 45.8467C155.041 45.8467 154.69 46.3989 154.69 46.8634C154.69 47.4968 155.103 47.8087 156.039 48.1627C157.189 48.6045 157.77 49.16 157.77 50.1572C157.77 51.2032 156.997 52.1062 155.395 52.1062C154.79 52.1133 154.192 51.9646 153.661 51.6742L153.895 50.966Z" fill="white"/>
<path d="M141.021 30.6997C140.046 30.0501 139.595 31.0895 139.107 31.8009C138.532 32.6422 138.016 33.5745 137.275 34.2436C135.794 35.5819 134.53 35.0655 134.231 33.1067C134.188 32.7305 134.177 32.3512 134.199 31.9731C134.296 25.9723 134.395 19.9705 134.494 13.9677C134.494 13.828 134.514 13.2173 134.54 12.3435H138.916C139.178 12.3287 139.425 12.214 139.606 12.0228C139.787 11.8316 139.888 11.5785 139.888 11.3154C139.888 11.0523 139.787 10.7992 139.606 10.608C139.425 10.4168 139.178 10.3021 138.916 10.2873H134.605C134.693 7.40281 134.816 3.60877 134.894 1.86768C131.239 3.43661 121.76 7.63019 121.76 7.63019V10.0437V10.2776H118.762C118.622 10.2697 118.482 10.2905 118.35 10.3386C118.219 10.3867 118.098 10.4611 117.997 10.5574C117.895 10.6536 117.814 10.7696 117.758 10.8983C117.703 11.0269 117.674 11.1656 117.674 11.3057C117.674 11.4458 117.703 11.5844 117.758 11.713C117.814 11.8417 117.895 11.9577 117.997 12.0539C118.098 12.1502 118.219 12.2246 118.35 12.2727C118.482 12.3209 118.622 12.3416 118.762 12.3337H121.728C121.66 16.6345 121.52 25.8273 121.507 29.696C121.491 34.2436 123.664 37.0664 127.783 37.8493C129.175 38.0655 130.589 38.1015 131.99 37.9565C135.693 37.6869 138.73 36.1017 140.761 32.9378C141.151 32.3401 141.495 31.0765 141.021 30.6997Z" fill="white"/>
<path d="M46.3887 48.3088H18.9941C18.7375 48.3088 18.5295 48.5168 18.5295 48.7733C18.5295 49.0299 18.7375 49.2379 18.9941 49.2379H46.3887C46.6452 49.2379 46.8532 49.0299 46.8532 48.7733C46.8532 48.5168 46.6452 48.3088 46.3887 48.3088Z" fill="white"/>
<path d="M189.371 48.3088H161.977C161.72 48.3088 161.512 48.5168 161.512 48.7733C161.512 49.0299 161.72 49.2379 161.977 49.2379H189.371C189.628 49.2379 189.836 49.0299 189.836 48.7733C189.836 48.5168 189.628 48.3088 189.371 48.3088Z" fill="white"/>
</g>
<defs>
<filter id="filter0_d_79_499" x="-4" y="0" width="215.531" height="62" filterUnits="userSpaceOnUse" color-interpolation-filters="sRGB">
<feFlood flood-opacity="0" result="BackgroundImageFix"/>
<feColorMatrix in="SourceAlpha" type="matrix" values="0 0 0 0 0 0 0 0 0 0 0 0 0 0 0 0 0 0 127 0" result="hardAlpha"/>
<feOffset dy="4"/>
<feGaussianBlur stdDeviation="2"/>
<feComposite in2="hardAlpha" operator="out"/>
<feColorMatrix type="matrix" values="0 0 0 0 0 0 0 0 0 0 0 0 0 0 0 0 0 0 0.25 0"/>
<feBlend mode="normal" in2="BackgroundImageFix" result="effect1_dropShadow_79_499"/>
<feBlend mode="normal" in="SourceGraphic" in2="effect1_dropShadow_79_499" result="shape"/>
</filter>
</defs>
</svg>
